<svg xmlns="http://www.w3.org/2000/svg">
  <defs>
    <symbol id="horse-user" viewBox="-5.0 -10.0 110.0 135.0">
     <path d="m38.891 90.023c-0.14062-0.60156-0.43359-1.1641-0.84375-1.625l-0.75-0.83984c-0.058594-0.066406-0.13672-0.10547-0.20703-0.15625l-4.0625-15.789 5.2031-7.5508c0.32031-0.46484 0.20312-1.1016-0.26172-1.4219-0.46875-0.32031-1.1016-0.20312-1.4219 0.26172l-5.4688 7.9336c-0.16797 0.24219-0.22266 0.54687-0.14844 0.83594l4.0742 15.828h-3.4688l-4.7578-15.312c-0.16797-0.53906-0.74219-0.83984-1.2773-0.67188-0.53906 0.16797-0.83984 0.73828-0.67188 1.2773l4.9805 16.027c0.003906 0.019532 0.019531 0.035157 0.027344 0.050782-0.042969 0.11328-0.070313 0.23047-0.070313 0.35547v4.3281c0 0.5625 0.45703 1.0195 1.0195 1.0195h7.8789c0.3125 0 0.60547-0.14062 0.80078-0.38672 0.19531-0.24219 0.26562-0.5625 0.19531-0.86719l-0.76953-3.3086zm-7.082 2.5156v-2.9961h4.5156 0.007812l0.19531 0.21484c0.18359 0.20703 0.31641 0.45703 0.37891 0.72656l0.47656 2.0547zm62.945-74.332c-0.65625-1.4023-1.3789-2.6289-2.1602-3.6953 1.3047-2.7617 0.98828-6.2227-0.875-8.6562-0.23438-0.30859-0.62891-0.45312-1.0117-0.37891-0.38281 0.078126-0.6875 0.36328-0.78516 0.74219-0.40625 1.5586-1.3242 2.9609-2.5742 3.9766-1.5859-0.625-3.3008-0.80859-5.1289-0.54687-0.48828-1.4727-1.2344-2.7812-2.2539-3.8984-0.18359-0.20312-0.4375-0.32031-0.71094-0.33203-0.26172-0.011719-0.53906 0.085937-0.73828 0.26953-2.3086 2.1367-3.1562 4.7031-2.5391 7.6523-4.2695 0.058594-8.0156 2.543-10.008 6.668-0.082031 0.17188-0.09375 0.35156-0.070312 0.52734-0.023438 0.015625-0.054688 0.027344-0.082032 0.042969-1.6562 0.94922-2.9766 2.4414-3.7109 4.2031-0.027344 0.070312-0.03125 0.14062-0.042969 0.21484-1.543 0.92188-2.8281 2.3906-3.5781 4.1211-0.078125 0.17969-0.085937 0.36719-0.0625 0.55078-1.8594 1.1797-3.1367 3.0195-3.4609 5.0156-4.9922 1.0312-11.016 0.73828-17.789-0.90625-3.793-0.91797-7.3711-0.92188-10.645-0.011719-2.1211 0.58984-3.9648 1.4453-5.5312 2.5469-0.046875-0.023438-0.082032-0.0625-0.13281-0.078125-2.9922-1.0469-5.9648-0.99219-8.375 0.16406-2.418 1.1562-4.2695 2.9414-5.5078 5.3047-1.25 2.3789-1.9688 5.4453-1.9688 8.4023v18.32c0 0.34766 0.17578 0.67188 0.46875 0.85938 0.16797 0.10938 0.35938 0.16406 0.55469 0.16406 0.14453 0 0.28516-0.03125 0.42188-0.089844 1.168-0.52734 5.1016-2.4922 6.6484-5.543 0.94141-1.8555 1.332-4.1133 1.1875-6.9062-0.058594-1.1914-0.20703-2.375-0.34766-3.5234-0.12109-0.99219-0.24609-2.0156-0.3125-3.0156-0.16406-2.4844 0.089844-4.3711 0.80078-5.9414 0.4375-0.96484 1.0703-1.7734 1.8125-2.3711-0.60547 1.3516-1.0273 2.8359-1.2578 4.4531-0.31641 2.1797-0.20312 4.5508 0.32812 7.0391l1.3359 6.2305c0.41797 1.9453 0.09375 3.9648-0.91016 5.6836l-2.1445 3.668c-0.16016 0.26953-0.18359 0.60156-0.066406 0.89063 0.94531 2.3828 1.4102 8.7852 1.8633 14.977 0.085938 1.2109 0.17578 2.4219 0.26953 3.6055 0.035157 0.44922 0.35938 0.79297 0.77734 0.89453v4.0625c0 0.5625 0.45703 1.0195 1.0195 1.0195h7.8789c0.3125 0 0.60547-0.14062 0.80078-0.38672 0.19531-0.24219 0.26562-0.5625 0.19531-0.86719l-0.76953-3.3086c-0.14062-0.60156-0.43359-1.1641-0.84375-1.625l-0.75-0.83984c-0.0625-0.070313-0.14062-0.11328-0.21484-0.16016l-0.65234-14.133c-0.03125-0.71484 0.28516-1.3984 0.85156-1.8359 4.1719-3.2148 7.8516-6.4531 9.8594-11.723 6.0586 2.9336 11.758 4.3906 17.441 4.3906 2.3711 0 4.7422-0.26562 7.1328-0.76172v9.1289c0 0.55469 0.050781 1.1094 0.15625 1.6484l0.11328 0.57422c0.10156 0.52344 0.13672 1.0547 0.11328 1.582l-0.59375 12.211c-0.011719 0.27734 0.085937 0.55078 0.28125 0.75391 0.13672 0.14062 0.3125 0.22266 0.5 0.26562v4.0664c0 0.5625 0.45703 1.0195 1.0195 1.0195h7.8789c0.3125 0 0.60547-0.14062 0.80078-0.38672 0.19531-0.24219 0.26562-0.5625 0.19531-0.86719l-0.76953-3.3086c-0.14063-0.60156-0.43359-1.1641-0.84375-1.625l-0.75-0.83984c-0.09375-0.10547-0.20703-0.1875-0.33203-0.24219l0.38281-9.8789c0.035156-0.94531 0.26953-1.8594 0.69531-2.707 0.40625-0.8125 0.67969-1.6758 0.81641-2.5742l1.4609-9.6055c3.0977-0.56641 5.5391-1.5352 7.3906-2.9844l-1.3906 13.578-0.85547 1.9062c-0.0625 0.13672-0.09375 0.28516-0.089844 0.4375l0.1875 9.9258c0.011719 0.70703 0.10938 1.4102 0.28516 2.0938h-3.1133v-11.824l-0.56641-8.3867c-0.039062-0.5625-0.52344-0.96484-1.0859-0.94922-0.5625 0.039062-0.98828 0.52344-0.94922 1.0859l0.5625 8.3203v12.777c0 0.36719 0.20312 0.67578 0.49609 0.85547v4.1836c0 0.5625 0.45703 1.0195 1.0195 1.0195h7.8789c0.3125 0 0.60547-0.14063 0.80078-0.38672 0.19531-0.24219 0.26562-0.5625 0.19531-0.86719l-0.76562-3.3086c-0.14062-0.60156-0.42969-1.1641-0.84375-1.625l-0.75-0.83984c-0.21484-0.23828-0.51172-0.33984-0.80859-0.32422-0.17969-0.60547-0.29297-1.2305-0.30469-1.8633l-0.18359-9.6953 0.82812-1.8477c0.042969-0.097656 0.074219-0.20312 0.085937-0.3125l1.6836-16.422c0-0.011719-0.003906-0.019531-0.003906-0.027344 1.7539-2.6484 2.5-6.2578 2.3711-11.086l1.3828-5.7422h4.4375c1.4297 0 2.793-0.6875 3.6445-1.8359l1.1367-1.543c0.82422-1.1172 1.0938-2.5781 0.71875-3.9141l-0.51562-1.8438c-0.11719-0.41406-0.12109-0.85937-0.015625-1.2812 0.69531-2.7891 1.3477-5.6484 1.4258-7.7734l0.80469-1.2773c0.49219-0.77734 0.55469-1.7305 0.17188-2.5508zm-16.777 74.332h-5.5703v-2.9961h4.0195c0.14844 0 0.28906-0.035157 0.42188-0.097657l0.27734 0.30859c0.18359 0.20703 0.31641 0.46094 0.37891 0.72656l0.47656 2.0547zm12.621-77.289c-1.0586-0.10156-2.1055-0.46875-2.9805-1.0625-0.88281-0.60156-1.6133-1.4492-2.0977-2.4141 1.8906 0.4375 3.5898 1.5977 5.0742 3.4766zm0.44141-6.3555c0.40625 1.2383 0.41406 2.5938 0.046876 3.8438-0.57813-0.58203-1.1836-1.0938-1.8125-1.5156 0.70312-0.67969 1.2969-1.4648 1.7656-2.3242zm-15.84 6.4141c-1.1602 1.0273-2.293 2.3828-3.4297 3.9102-0.023437-0.003906-0.042969-0.019531-0.066406-0.023438-1.0664-0.14062-2.2031 0.007813-3.25 0.29688 1.6094-2.4062 4.0117-3.8945 6.7422-4.1836zm-8.3711 7.043c1.0703-0.61719 2.3867-1.0273 3.5117-1.1328-0.51562 0.74609-1.0352 1.5078-1.5625 2.2812-0.10547 0.15234-0.20703 0.30469-0.3125 0.46094-1.125-0.26953-2.3438-0.24219-3.4688-0.03125 0.51172-0.625 1.1289-1.168 1.832-1.5742zm-3.2539 4.2617c1.0547-0.51562 2.3984-0.76172 3.5469-0.69531-0.61328 0.87891-1.2305 1.7344-1.8438 2.5234-1.2852-0.25-2.6328-0.23438-3.9141 0.039063 0.61328-0.79297 1.3633-1.4531 2.2109-1.8711zm-3.9141 4.5078c1.2227-0.70703 2.7148-1.0391 4.1797-0.96094-0.86328 0.94922-1.7148 1.7148-2.5508 2.1875-1.293 0.74609-2.7148 1.3398-4.2422 1.8047 0.4375-1.2188 1.3594-2.3086 2.6133-3.0312zm-47.098 12.469c-0.84375 1.8594-1.1641 4.1211-0.97656 6.918 0.070312 1.0547 0.19922 2.1094 0.32422 3.1289 0.13672 1.1094 0.27734 2.2578 0.33203 3.3789 0.125 2.4258-0.19141 4.3516-0.96875 5.875-0.76953 1.5195-2.5117 2.8906-4.2305 3.8711v-16.656c0-2.6406 0.63281-5.3555 1.7344-7.4531 1.0312-1.9609 2.5742-3.4453 4.582-4.4102 1.6484-0.78906 3.6758-0.91797 5.7852-0.38672-0.375 0.37109-0.72656 0.75781-1.0547 1.168-2.3086 0.38672-4.4219 2.1211-5.5273 4.5664zm11.473 48.949h-5.5703v-2.9961h4.3008c0.066406 0 0.125-0.027344 0.1875-0.039063l0.22656 0.25391c0.18359 0.20703 0.31641 0.45703 0.37891 0.72656zm42.516 0h-5.5742v-2.9961h4.0898c0.13281 0 0.25391-0.027344 0.37109-0.074219l0.25781 0.28906c0.18359 0.20703 0.31641 0.45703 0.37891 0.72656zm26.301-72.871-0.95703 1.5156c-0.10156 0.16016-0.15625 0.34375-0.15625 0.53125-0.023437 1.9453-0.67188 4.8008-1.3711 7.5977-0.19141 0.76953-0.17969 1.5742 0.03125 2.332l0.51562 1.8438c0.20703 0.73438 0.058594 1.5352-0.39453 2.1484l-1.1406 1.543c-0.46484 0.63281-1.2148 1.0078-2 1.0078h-4.7266c-0.78516 0-1.5352-0.375-2-1.0078l-1.1406-1.543c-0.45312-0.61328-0.59766-1.4141-0.39453-2.1484l0.51562-1.8438c0.21094-0.75391 0.22266-1.5625 0.03125-2.332-0.69922-2.7969-1.3477-5.6523-1.3711-7.5977-0.003907-0.5625-0.5-1.0156-1.0312-1.0117-0.5625 0.003906-1.0156 0.46875-1.0117 1.0312 0.023438 2.1562 0.70312 5.1562 1.4297 8.0703 0.10547 0.42578 0.10156 0.86719-0.015626 1.2852l-0.51562 1.8438c-0.375 1.3359-0.10547 2.7969 0.71484 3.9141l1.1406 1.543c0.49219 0.66797 1.1641 1.1719 1.9141 1.4844l-1.3867 5.75c-0.019531 0.085938-0.03125 0.17969-0.027344 0.26953 0.26172 8.9062-2.3828 12.945-9.6562 14.496l1.543-2.5742c0.28906-0.48438 0.13281-1.1094-0.35156-1.4023-0.48437-0.28906-1.1094-0.13281-1.4023 0.35156l-1.7031 2.8398c-0.066406 0.11328-0.11328 0.23828-0.13281 0.37109l-1.8086 11.867c-0.10547 0.68359-0.3125 1.3477-0.625 1.9688-0.55469 1.1133-0.85938 2.3047-0.91016 3.543l-0.39453 10.145h-3.8398l0.54297-11.141c0.035156-0.69141-0.015625-1.3867-0.14844-2.0703l-0.11328-0.57422c-0.078125-0.41016-0.12109-0.83594-0.12109-1.2578v-15.66c0-0.5625-0.45703-1.0195-1.0195-1.0195s-1.0195 0.45703-1.0195 1.0195v4.4531c-7.8906 1.7344-15.527 0.625-23.93-3.4922 0.40234-1.4609 0.69141-3.0625 0.84375-4.8477 0.046876-0.5625-0.36719-1.0547-0.92969-1.1055-0.55469-0.054688-1.0547 0.36719-1.1055 0.92969-0.75391 8.8711-5.0391 12.824-10.559 17.074-1.0938 0.84375-1.7109 2.168-1.6445 3.5508l0.65234 14.141h-4.0859c-0.066407-0.87891-0.12891-1.7656-0.19531-2.6523-0.45703-6.2656-0.89062-12.207-1.8281-15.102l1.9062-3.2578c1.2617-2.1602 1.6719-4.6953 1.1445-7.1406l-1.3359-6.2305c-0.48438-2.2539-0.58594-4.3789-0.30469-6.3203 0.82031-5.7109 4.2109-9.4336 10.074-11.066 2.9336-0.81641 6.168-0.80859 9.6133 0.027343 10.633 2.582 19.258 2.0273 25.625-1.6445 2.8203-1.6016 5.4141-5.4258 8.1602-9.4766 2.5117-3.707 5.1133-7.5391 7.5234-8.8594 0.45312-0.24609 0.64844-0.79297 0.45703-1.2734-1.0352-2.5977-0.82031-4.6992 0.69141-6.5273 1.0664 1.5156 1.625 3.3477 1.6992 5.5703 0.019532 0.5625 0.5 0.98828 1.0547 0.98438 0.5625-0.019531 1.0039-0.49219 0.98438-1.0547-0.023438-0.63672-0.089844-1.25-0.18359-1.8438 0.18359-0.023437 0.37109-0.039062 0.55078-0.050781 0.57422 1.7344 1.707 3.25 3.2188 4.2812 1.3867 0.94531 3.0352 1.4492 4.707 1.4492 0.23047 0 0.46094-0.007812 0.69531-0.027344 0.03125-0.003906 0.058594-0.019531 0.085938-0.023437 0.32422 0.5625 0.64062 1.1602 0.94141 1.8047 0.085937 0.18359 0.066406 0.41016-0.046875 0.59375zm-11.848 3.5898c-0.76172 0-1.3789-0.61719-1.3789-1.3789 0-0.76172 0.61719-1.3789 1.3789-1.3789 0.76172 0 1.3789 0.61719 1.3789 1.3789 0 0.76172-0.61719 1.3789-1.3789 1.3789zm9.7227-1.3789c0 0.76172-0.61719 1.3789-1.3789 1.3789-0.76172 0-1.3789-0.61719-1.3789-1.3789 0-0.76172 0.61719-1.3789 1.3789-1.3789 0.76172 0 1.3789 0.61719 1.3789 1.3789zm-7.2422 12.199c0.26172 0.75781 0.050781 1.5195-0.46484 1.6953-0.51953 0.17969-1.1484-0.29297-1.4102-1.0547-0.26172-0.75781-0.050781-1.5195 0.46484-1.6953 0.51953-0.17578 1.1484 0.29297 1.4102 1.0547zm5.4688 0.64453c-0.26172 0.75781-0.89062 1.2305-1.4102 1.0547-0.51953-0.17969-0.72656-0.9375-0.46484-1.6953 0.26172-0.75781 0.89062-1.2305 1.4102-1.0547 0.51953 0.17969 0.72656 0.9375 0.46484 1.6953z"/>
     </symbol>

     <symbol id ="horse-horse" viewBox = "0 0 512 640">
      <g>
      <path d="M83.7,381.3c-6.3-4.6-15.1-3.2-19.7,3.1c-13.4,18.4-9.8,36.9-9.2,38.9c3.7,12.8,15.8,10.8,16.9,10.6   c7.6-1.7,12.3-9.3,10.6-16.9c0-0.1-1.4-7.9,4.5-16C91.4,394.7,90,385.9,83.7,381.3z"/>
      <path d="M500.3,182.1C460,117.3,336.5,94.2,306,89.4C263.2,22.8,222.2,4,220.4,3.2c-5.1-2.3-11.1-1.3-15.2,2.5   c-4.1,3.8-5.6,9.6-3.9,14.9l14.9,44.1c-1.4,0.4-2.9,0.8-4.2,1.2C182.6,35,151.4,13.7,150,12.8c-6-4.1-14.2-2.9-18.8,2.7   c-1.3,1.5-28.8,36.5,16.8,99.8c-11.3,10.8-26.3,30.6-26.5,59.2c-17.5,17-20.6,39.1-16,57.9c0.2,0.8,0.2,1.5-0.3,2.6   c-7.8,17.5-18.4,35-31.4,51.9c-17,22.1-34.2,51.6-45.6,72.4c-11.4,20.7-17.8,43.2-18.5,65.2c-0.9,25.5,5.8,44.9,18.4,59.1   c13.8,15.6,49,21,59.2,21c28,0,49.1-16.2,58.5-35c3.1-6.1,9-10.7,15.8-12.4c34.2-8.3,66.1-29.8,83.2-41.3   c3.2-2.2,10.8-6.8,12.8-7.5c23.7-8.9,41.6-21.8,55.2-36.2c17.9,23.4,69,91.8,83.6,128.9c2.1,5.4,7.3,8.9,13.1,8.9h78.9   c7.8,0,14.1-6.3,14.1-14.1V189.6C502.4,186.9,501.7,184.4,500.3,182.1z M474.2,481.8h-55.5c-21.6-46.2-77.2-118.7-88.2-132.8   c25.9-42,25.1-87,25.1-87.7c-0.2-7.8-6.7-14-14.5-13.7c-7.8,0.2-13.9,6.7-13.7,14.5c0,0.9,1.7,89.2-79.8,119.8   c-3.7,1.4-15,8.1-18.7,10.5c-15.7,10.5-44.8,30.2-74.1,37.3c-15,3.6-27.5,13.5-34.3,27.2c-3.3,6.6-10.9,15-23.1,18.1   c9.7-12.9,20-31.9,26.9-59.1c1.9-7.6-2.7-15.2-10.2-17.1c-7.6-1.9-15.2,2.7-17.1,10.2c-10.1,39.8-27.5,57.2-34.9,63   c-3.5-0.9-8.9-2.9-13.7-7.9c-7.6-8-11.2-21-10.6-38.7c0.6-17.6,5.8-35.7,15-52.6c10.9-19.9,27.3-48.1,43.3-68.8   c14.4-18.7,26.1-38.1,35-58.1c2.8-6.2,3.4-13.4,1.7-20.3c-3.5-14-1-33,30.6-43.3c7.4-2.4,11.5-10.4,9-17.8   c-2.4-7.4-10.4-11.5-17.8-9c-0.4,0.1-0.8,0.3-1.2,0.4c6.8-16.9,20.7-25.9,21.4-26.4c3.5-2.1,5.8-5.7,6.5-9.7c0.7-4-0.4-8.1-3-11.3   c-23.2-28.5-28.4-48.6-28.5-60.8c12.7,10,31.1,25.6,47.6,44.1c4.1,4.5,10.6,6,16.2,3.5c5.3-2.3,12.4-4.1,15.3-4.2   c4.7,2.6,10.6,2.3,15.1-0.9c5-3.6,7.1-10.1,5.1-15.9l-6.5-19.2c12.6,12.4,27.6,30.1,42.8,54.7c2.2,3.6,6,6,10.2,6.6   c0.7,0.1,31,4.2,67.2,14.6c5.4,16.9,22.8,78.2,17.9,150.5c-0.5,7.8,5.5,15.1,14.1,15.1c7.4,0,13.6-5.7,14.1-13.1   c4.1-60.1-6-112.3-13.6-141.7c6.5,2.5,13,5.1,19.4,8c4.7,14.1,23.4,74.9,18.3,147c-0.5,7.8,5.7,15.1,14.1,15.1   c7.3,0,13.5-5.7,14.1-13.1c3.7-52.8-4.2-99.4-11.4-128.9c9.8,7.1,18.2,15.1,24.4,24V481.8z"/>
      <path d="M255.1,207.3c-12.3-6.6-40.6-12.7-60.1,12c-4.8,6.1-3.9,15.2,2.3,19.8c9.1,6.7,17,1.2,19.8-2.3c9.2-11.6,22-5.9,24.6-4.6   c6.8,3.6,15.3,1.1,19-5.8C264.5,219.6,262,211,255.1,207.3z"/>
      </g>
      </symbol>
  </defs>
</svg>