<svg xmlns="http://www.w3.org/2000/svg" version="1.1" viewBox="-5.0 -10.0 110.0 135.0">
 <path d="m97.656 36.801c0.43359 0 0.78125-0.35156 0.78125-0.78125v-5.3594c0-0.011718-0.003906-0.019531-0.003906-0.027344 0-0.050781-0.019532-0.10156-0.03125-0.15234-0.011719-0.050781-0.019532-0.10547-0.042969-0.15234-0.003906-0.007813-0.003906-0.019531-0.007813-0.027344l-12.613-24.578c-0.13281-0.26172-0.40234-0.42578-0.69531-0.42578l-70.086 0.003906c-0.29297 0-0.5625 0.16406-0.69531 0.42578l-12.613 24.574c-0.003907 0.007813-0.003907 0.019531-0.007813 0.027344-0.023437 0.046875-0.03125 0.097656-0.042969 0.14844-0.011718 0.050782-0.027344 0.10156-0.03125 0.15234 0 0.011719-0.003906 0.019532-0.003906 0.027344v5.3594c0 0.42969 0.34766 0.78125 0.78125 0.78125h5.0039v50.977l-5.0039 0.003906c-0.43359 0-0.78125 0.35156-0.78125 0.78125v5.3594c0 0.42969 0.34766 0.78125 0.78125 0.78125h95.312c0.43359 0 0.78125-0.35156 0.78125-0.78125v-5.3594c0-0.42969-0.34766-0.78125-0.78125-0.78125h-5.0039v-50.977zm-82.223-29.938h69.133l11.812 23.016h-92.758zm-12.309 24.578h93.75v3.7969h-93.75zm56.031 56.336v-3.9531h23.559v3.9531zm-8.375 0v-50.977h6.8125v34.109h-0.066406c-0.43359 0-0.78125 0.35156-0.78125 0.78125 0 0.42969 0.34766 0.78125 0.78125 0.78125h0.066406v3.832h-0.066406c-0.43359 0-0.78125 0.35156-0.78125 0.78125 0 0.42969 0.34766 0.78125 0.78125 0.78125h0.066406v9.9102zm-8.375 0v-50.977h6.8125v50.977zm-25.121 0v-3.9531h23.559v3.9531zm0.0625-11.473h-0.0625v-3.832h0.0625c0.43359 0 0.78125-0.35156 0.78125-0.78125 0-0.42969-0.34766-0.78125-0.78125-0.78125h-0.0625v-3.6875l10.402 7.168-10.402 7.168v-3.6875h0.0625c0.43359 0 0.78125-0.35156 0.78125-0.78125 0-0.42969-0.34766-0.78125-0.78125-0.78125zm6.75-39.504v10.32h-6.8125v-10.32zm1.5625 7.1602h6.8125v3.1602h-6.8125zm15.184 4.7227v2.4102h-23.559v-2.4102zm-23.559 3.9727h23.559v12.297h-23.559zm21.828 13.859-10.051 6.9219-10.051-6.9219zm0 15.746h-20.102l10.051-6.9219zm-8.6719-7.875 10.402-7.168v14.332l-10.402-7.168zm10.402-27.266h-6.8125v-10.32h6.8125zm-8.375-4.7227h-6.8125v-5.5977h6.8125zm26.688 35.469h0.0625c0.43359 0 0.78125-0.35156 0.78125-0.78125 0-0.42969-0.34766-0.78125-0.78125-0.78125h-0.0625v-3.832h0.0625c0.43359 0 0.78125-0.35156 0.78125-0.78125 0-0.42969-0.34766-0.78125-0.78125-0.78125h-0.0625v-3.6875l10.402 7.168-10.402 7.168zm23.559-12.914h-23.559v-12.297h23.559zm-1.7305 1.5625-10.051 6.9219-10.051-6.9219zm-10.047 8.8203 10.051 6.9219h-20.102zm1.375-0.94922 10.402-7.168v14.332l-10.402-7.168zm10.402-23.293h-23.559v-2.4102h23.559zm-15.184-3.9727v-3.1602h6.8125v3.1602zm6.8086-4.7227h-6.8125v-5.5977h6.8125zm-8.3711 4.7227h-6.8125v-10.32h6.8125zm16.746 0h-6.8125v-10.32h6.8125zm-73.805-10.32h6.8125v34.109h-0.0625c-0.43359 0-0.78125 0.35156-0.78125 0.78125 0 0.42969 0.34766 0.78125 0.78125 0.78125h0.0625v3.832h-0.0625c-0.43359 0-0.78125 0.35156-0.78125 0.78125 0 0.42969 0.34766 0.78125 0.78125 0.78125h0.0625v9.9102h-6.8125zm87.965 56.336h-93.75v-3.7969h93.75zm-5.7852-5.3594h-6.8125v-50.977h6.8125z"/>
<text x="0.0" y="117.5" font-size="5.0" font-weight="bold" font-family="Arbeit Regular, Helvetica, Arial-Unicode, Arial, Sans-serif" fill="#000000">Created by Hafiz Nur Lutfianto</text><text x="0.0" y="122.5" font-size="5.0" font-weight="bold" font-family="Arbeit Regular, Helvetica, Arial-Unicode, Arial, Sans-serif" fill="#000000">from Noun Project</text></svg>