<svg xmlns="http://www.w3.org/2000/svg" version="1.1" viewBox="-5.0 -10.0 110.0 135.0">
 <path d="m94.895 58.723-14.668-29.469c-0.074218-0.14844-0.18359-0.27734-0.32031-0.37109l-29.332-20.699c-0.34375-0.24219-0.80859-0.24219-1.1523 0l-29.332 20.699c-0.13672 0.09375-0.24609 0.22266-0.32031 0.37109l-14.668 29.469c-0.15625 0.30859-0.13672 0.67969 0.046876 0.97266 0.18359 0.29688 0.50391 0.47266 0.85156 0.47266h3.9336v30.832c0 0.55469 0.44922 1 1 1h78.129c0.55078 0 1-0.44531 1-1v-30.832h3.9336c0.34766 0 0.66797-0.17969 0.85156-0.47266 0.18359-0.29297 0.19922-0.66406 0.046875-0.97266zm-61.383 31.277h-21.578v-2.9648h21.578zm0-4.9648h-21.578v-4.0156h21.578zm15.488 4.9648h-13.488v-21.742h13.488zm15.488 0h-13.488v-21.742h13.488zm23.578 0h-21.578v-2.9648h21.578zm0-4.9648h-21.578v-4.0156h21.578zm0-12.031h-5.8125v-4.0156h5.8125zm0-6.0156h-5.8672c-0.12109-0.41797-0.48828-0.73047-0.94531-0.73047h-8.9102c-0.55078 0-1 0.44531-1 1v8.9102c0 0.55469 0.44922 1 1 1h8.9102c0.55078 0 1-0.44531 1-1v-1.1641h5.8125v4.0156h-21.578v-11.762c0-0.55078-0.44922-1-1-1h-30.977c-0.55078 0-1 0.44922-1 1v11.762h-21.578v-4.0156h5.8125v1.1641c0 0.55469 0.44922 1 1 1h8.9102c0.55078 0 1-0.44531 1-1v-8.9102c0-0.55469-0.44922-1-1-1h-8.9102c-0.45703 0-0.82422 0.3125-0.94531 0.73047h-5.8672v-4.0156h76.133zm-7.8125 1.2695v6.9102h-6.9102v-6.9102zm-68.32 4.7461v-4.0156h5.8125v4.0156zm7.8125 2.1602v-6.9102h6.9102v6.9102zm68.32-14.191h-76.133v-1.5586l1.2812-2.457h73.57l1.2812 2.457zm-47.703-28.082v4.0156h-16.711l1.8984-3.6445 0.62109-0.42188c0.082031 0.023437 0.16406 0.050781 0.25391 0.050781h13.941zm-11.324-2 11.324-7.6914v7.6914zm11.324 8.0156v0.93359c0 0.55469 0.44922 1 1 1h17.273c0.55078 0 1-0.44531 1-1v-0.93359h17.754l2.0898 4.0156h-58.961l2.0898-4.0156zm2-0.066406v-17l7.6367-5.1875 7.6367 5.1875v17zm31.211-5.9492c0.089843 0 0.17188-0.027344 0.25391-0.050781l0.62109 0.42188 1.8984 3.6445h-16.711v-4.0156h13.941zm-13.938-2v-7.6914l11.324 7.6914zm20.887 14.031 2.0898 4.0156h-65.227l2.0898-4.0156zm3.1289 6.0156 2.0898 4.0156-71.488 0.003906 2.0898-4.0156h67.309zm6.0195 7.2305-4.4805-8.6055c-0.007812-0.015625-0.015625-0.027344-0.019531-0.039062l-9.0625-17.406c-0.078125-0.14844-0.1875-0.27344-0.32422-0.36719l-25.223-17.133c-0.33984-0.23047-0.78516-0.23047-1.125 0l-25.223 17.133c-0.13672 0.09375-0.25 0.21875-0.32422 0.36719l-9.0625 17.406c-0.007813 0.015624-0.015625 0.027343-0.019531 0.039062l-4.4805 8.6055h-2.7109l13.836-27.797 28.551-20.148 28.551 20.148 13.836 27.797z"/>
<text x="0.0" y="117.5" font-size="5.0" font-weight="bold" font-family="Arbeit Regular, Helvetica, Arial-Unicode, Arial, Sans-serif" fill="#000000">Created by Lewen Design</text><text x="0.0" y="122.5" font-size="5.0" font-weight="bold" font-family="Arbeit Regular, Helvetica, Arial-Unicode, Arial, Sans-serif" fill="#000000">from Noun Project</text></svg>