<svg xmlns="http://www.w3.org/2000/svg" xmlns:xlink="http://www.w3.org/1999/xlink" version="1.1" x="0px" y="0px" viewBox="0 0 512 640" enable-background="new 0 0 512 512" xml:space="preserve"><g><path d="M83.7,381.3c-6.3-4.6-15.1-3.2-19.7,3.1c-13.4,18.4-9.8,36.9-9.2,38.9c3.7,12.8,15.8,10.8,16.9,10.6   c7.6-1.7,12.3-9.3,10.6-16.9c0-0.1-1.4-7.9,4.5-16C91.4,394.7,90,385.9,83.7,381.3z"/><path d="M500.3,182.1C460,117.3,336.5,94.2,306,89.4C263.2,22.8,222.2,4,220.4,3.2c-5.1-2.3-11.1-1.3-15.2,2.5   c-4.1,3.8-5.6,9.6-3.9,14.9l14.9,44.1c-1.4,0.4-2.9,0.8-4.2,1.2C182.6,35,151.4,13.7,150,12.8c-6-4.1-14.2-2.9-18.8,2.7   c-1.3,1.5-28.8,36.5,16.8,99.8c-11.3,10.8-26.3,30.6-26.5,59.2c-17.5,17-20.6,39.1-16,57.9c0.2,0.8,0.2,1.5-0.3,2.6   c-7.8,17.5-18.4,35-31.4,51.9c-17,22.1-34.2,51.6-45.6,72.4c-11.4,20.7-17.8,43.2-18.5,65.2c-0.9,25.5,5.8,44.9,18.4,59.1   c13.8,15.6,49,21,59.2,21c28,0,49.1-16.2,58.5-35c3.1-6.1,9-10.7,15.8-12.4c34.2-8.3,66.1-29.8,83.2-41.3   c3.2-2.2,10.8-6.8,12.8-7.5c23.7-8.9,41.6-21.8,55.2-36.2c17.9,23.4,69,91.8,83.6,128.9c2.1,5.4,7.3,8.9,13.1,8.9h78.9   c7.8,0,14.1-6.3,14.1-14.1V189.6C502.4,186.9,501.7,184.4,500.3,182.1z M474.2,481.8h-55.5c-21.6-46.2-77.2-118.7-88.2-132.8   c25.9-42,25.1-87,25.1-87.7c-0.2-7.8-6.7-14-14.5-13.7c-7.8,0.2-13.9,6.7-13.7,14.5c0,0.9,1.7,89.2-79.8,119.8   c-3.7,1.4-15,8.1-18.7,10.5c-15.7,10.5-44.8,30.2-74.1,37.3c-15,3.6-27.5,13.5-34.3,27.2c-3.3,6.6-10.9,15-23.1,18.1   c9.7-12.9,20-31.9,26.9-59.1c1.9-7.6-2.7-15.2-10.2-17.1c-7.6-1.9-15.2,2.7-17.1,10.2c-10.1,39.8-27.5,57.2-34.9,63   c-3.5-0.9-8.9-2.9-13.7-7.9c-7.6-8-11.2-21-10.6-38.7c0.6-17.6,5.8-35.7,15-52.6c10.9-19.9,27.3-48.1,43.3-68.8   c14.4-18.7,26.1-38.1,35-58.1c2.8-6.2,3.4-13.4,1.7-20.3c-3.5-14-1-33,30.6-43.3c7.4-2.4,11.5-10.4,9-17.8   c-2.4-7.4-10.4-11.5-17.8-9c-0.4,0.1-0.8,0.3-1.2,0.4c6.8-16.9,20.7-25.9,21.4-26.4c3.5-2.1,5.8-5.7,6.5-9.7c0.7-4-0.4-8.1-3-11.3   c-23.2-28.5-28.4-48.6-28.5-60.8c12.7,10,31.1,25.6,47.6,44.1c4.1,4.5,10.6,6,16.2,3.5c5.3-2.3,12.4-4.1,15.3-4.2   c4.7,2.6,10.6,2.3,15.1-0.9c5-3.6,7.1-10.1,5.1-15.9l-6.5-19.2c12.6,12.4,27.6,30.1,42.8,54.7c2.2,3.6,6,6,10.2,6.6   c0.7,0.1,31,4.2,67.2,14.6c5.4,16.9,22.8,78.2,17.9,150.5c-0.5,7.8,5.5,15.1,14.1,15.1c7.4,0,13.6-5.7,14.1-13.1   c4.1-60.1-6-112.3-13.6-141.7c6.5,2.5,13,5.1,19.4,8c4.7,14.1,23.4,74.9,18.3,147c-0.5,7.8,5.7,15.1,14.1,15.1   c7.3,0,13.5-5.7,14.1-13.1c3.7-52.8-4.2-99.4-11.4-128.9c9.8,7.1,18.2,15.1,24.4,24V481.8z"/><path d="M255.1,207.3c-12.3-6.6-40.6-12.7-60.1,12c-4.8,6.1-3.9,15.2,2.3,19.8c9.1,6.7,17,1.2,19.8-2.3c9.2-11.6,22-5.9,24.6-4.6   c6.8,3.6,15.3,1.1,19-5.8C264.5,219.6,262,211,255.1,207.3z"/></g><text x="0" y="527" fill="#000000" font-size="5px" font-weight="bold" font-family="'Helvetica Neue', Helvetica, Arial-Unicode, Arial, Sans-serif">Created by Icon Fair</text><text x="0" y="532" fill="#000000" font-size="5px" font-weight="bold" font-family="'Helvetica Neue', Helvetica, Arial-Unicode, Arial, Sans-serif">from the Noun Project</text></svg>