<svg xmlns="http://www.w3.org/2000/svg" version="1.1" viewBox="-5.0 -10.0 110.0 135.0">
 <path d="m77.141 29.809c4.8555 0 8.8086-3.9531 8.8086-8.8086s-3.9531-8.8086-8.8086-8.8086-8.8086 3.9531-8.8086 8.8086 3.9531 8.8086 8.8086 8.8086zm0-15.617c3.7539 0 6.8086 3.0547 6.8086 6.8086s-3.0547 6.8086-6.8086 6.8086-6.8086-3.0547-6.8086-6.8086 3.0547-6.8086 6.8086-6.8086zm0 17.461c0.55078 0 1 0.44531 1 1v3.3477c0 0.55469-0.44922 1-1 1s-1-0.44531-1-1v-3.3477c0-0.55469 0.44922-1 1-1zm-7.5312-3.1211c0.39062 0.39062 0.39062 1.0234 0 1.4141l-2.3672 2.3672c-0.19531 0.19531-0.45313 0.29297-0.70703 0.29297s-0.51172-0.097657-0.70703-0.29297c-0.39062-0.39062-0.39062-1.0234 0-1.4141l2.3672-2.3672c0.39063-0.39062 1.0234-0.39062 1.4141 0zm-8.4688-7.5312c0-0.55469 0.44922-1 1-1h3.3477c0.55078 0 1 0.44531 1 1s-0.44922 1-1 1h-3.3477c-0.55078 0-1-0.44531-1-1zm4.6875-9.8984c-0.39062-0.39062-0.39062-1.0234 0-1.4141s1.0234-0.39062 1.4141 0l2.3672 2.3672c0.39062 0.39062 0.39062 1.0234 0 1.4141-0.19531 0.19531-0.45312 0.29297-0.70703 0.29297s-0.51172-0.097657-0.70703-0.29297zm10.312-1.7539v-3.3477c0-0.55469 0.44922-1 1-1s1 0.44531 1 1v3.3477c0 0.55469-0.44922 1-1 1s-1-0.44531-1-1zm8.5312 4.1211c-0.39062-0.39062-0.39062-1.0234 0-1.4141l2.3672-2.3672c0.39063-0.39062 1.0234-0.39062 1.4141 0s0.39062 1.0234 0 1.4141l-2.3672 2.3672c-0.19531 0.19531-0.45313 0.29297-0.70703 0.29297s-0.51172-0.097657-0.70703-0.29297zm4.1211 6.5312h3.3477c0.55078 0 1 0.44531 1 1s-0.44922 1-1 1h-3.3477c-0.55078 0-1-0.44531-1-1s0.44922-1 1-1zm-2.707 8.5312 2.3672 2.3672c0.39062 0.39062 0.39062 1.0234 0 1.4141-0.19531 0.19531-0.45312 0.29297-0.70703 0.29297s-0.51172-0.097657-0.70703-0.29297l-2.3672-2.3672c-0.39062-0.39062-0.39062-1.0234 0-1.4141s1.0234-0.39062 1.4141 0zm-81.082 34.363c0-0.55469 0.44922-1 1-1h8.7617c0.55078 0 1 0.44531 1 1 0 0.55469-0.44922 1-1 1h-8.7617c-0.55078 0-1-0.44531-1-1zm88.996 14.508c0.55078 0 1-0.44531 1-1 0-0.55469-0.44922-1-1-1-8.2188 0-15.77 2.0391-20.852 5.6055-2.6211-1.1133-5.3672-2.1602-8.1992-3.1289 7.1211-4.6914 17.793-7.4531 29.051-7.4531 0.55078 0 1-0.44531 1-1 0-0.55469-0.44922-1-1-1-12.309 0-23.992 3.2344-31.414 8.668-2.875-0.92188-5.8984-1.7812-9.0195-2.5664 7.625-5.5742 18.961-9.418 31.516-10.633h8.543c0.41016 0 0.77734-0.25 0.92969-0.63281 0.15234-0.38281 0.054687-0.81641-0.24219-1.0977l-14.719-13.859c-2.2148-2.0781-5.6836-2.0781-7.9023 0.003906l-1.0703 1.0117-8.6562-8.1484c-2.2148-2.0859-5.6836-2.0859-7.8984 0l-6.6992 6.3047c-0.40234 0.37891-0.42188 1.0117-0.042969 1.4141 0.37891 0.40234 1.0117 0.42188 1.4141 0.042969l6.6992-6.3047c1.4453-1.3594 3.7109-1.3633 5.1562 0l16.297 15.344c0.19531 0.17969 0.4375 0.27344 0.6875 0.27344 0.26562 0 0.53125-0.10547 0.72656-0.3125 0.37891-0.40234 0.35937-1.0352-0.042969-1.4141l-6.1836-5.8242 0.98047-0.92969c1.4492-1.3555 3.7148-1.3594 5.1641 0l12.883 12.129h-36.461-0.003906-11.211c-0.55078 0-1 0.44531-1 1 0 0.55469 0.44922 1 1 1h6.7109c-4.4258 2.2344-8.2461 4.7891-11.402 7.6211-2.8281-0.44531-5.6797-0.81641-8.543-1.125v-4.2891c8.8398-0.52344 15.875-7.8555 15.875-16.824 0-4.7734-1.9961-9.2656-5.5039-12.465 1.1172-1.9648 1.7031-4.1758 1.7031-6.4531 0-7.2109-5.8672-13.078-13.078-13.078-7.2109 0-13.078 5.8672-13.078 13.078 0 2.2734 0.58594 4.4844 1.7031 6.4531-3.5078 3.1992-5.5039 7.6953-5.5039 12.465 0 8.9688 7.0352 16.301 15.875 16.824v4.0898c-7.3516-0.70703-14.789-0.98047-22.215-0.79297-0.55078 0.015624-0.98828 0.47266-0.97266 1.0234 0.015625 0.55469 0.47656 0.94531 1.0234 0.97656 7.418-0.19141 14.832 0.085937 22.164 0.80078v8.1641c-7.1797-0.81641-14.68-1.1797-22.207-1.0234-0.55078 0.011718-0.99219 0.46875-0.98047 1.0195s0.5 0.97656 1.0195 0.98047c23.344-0.47656 46.348 4.0469 60.055 11.656h-60.074c-0.55078 0-1 0.44531-1 1 0 0.27734 0.11328 0.52734 0.29688 0.70703 0.17969 0.18359 0.42969 0.29688 0.70703 0.29688h63.664c0.007812 0 0.015625-0.003906 0.023437-0.003906h23.578c0.42188 0 0.79688-0.26562 0.94141-0.66016 0.14453-0.39453 0.023437-0.83984-0.29688-1.1094-2.7305-2.2773-5.8633-4.4492-9.3047-6.4805 2.2734-1.4766 5.7148-2.3711 9.3906-2.3711 0.55078 0 1-0.44531 1-1s-0.44922-1-1-1c-4.543 0-8.6797 1.2227-11.281 3.2773-2.3906-1.3203-4.8633-2.5586-7.3828-3.6914 4.6953-2.875 11.512-4.5625 18.664-4.5625zm-79.684-28.125c0-4.4648 1.9805-8.6523 5.4336-11.492 0.39453-0.32422 0.48047-0.89844 0.19922-1.3242-1.1992-1.8125-1.8359-3.9219-1.8359-6.1016 0-6.1094 4.9688-11.078 11.078-11.078s11.078 4.9688 11.078 11.078c0 2.1758-0.63281 4.2852-1.8359 6.1016-0.28125 0.42578-0.19531 1 0.19922 1.3242 3.4531 2.8398 5.4336 7.0312 5.4336 11.492 0 7.8633-6.1406 14.305-13.875 14.824v-6.1562l6.1758-6.1758c0.39062-0.39062 0.39062-1.0234 0-1.4141-0.39063-0.39062-1.0234-0.39062-1.4141 0l-4.7617 4.7617v-19.297c0-0.55469-0.44922-1-1-1-0.55078 0-1 0.44531-1 1v13.977l-4.4766-4.4766c-0.39062-0.39062-1.0234-0.39062-1.4141 0-0.39062 0.39063-0.39062 1.0234 0 1.4141l5.8906 5.8906v11.473c-7.7344-0.51953-13.875-6.9609-13.875-14.824zm58.734 14.617c-8.7773 2.1367-16.445 5.6016-21.973 10.023-3.2031-0.75391-6.4844-1.4141-9.7852-1.9805 3.6914-3.0547 8.2461-5.7539 13.562-8.043zm-3.0977 29.102c-9.1484-5.9609-23.551-10.34-39.766-12.395v-8.2031c2.9141 0.31641 5.8164 0.69922 8.6953 1.1602 4.1172 0.65234 8.2188 1.4648 12.199 2.4141 3.9648 0.94531 7.7852 2.0156 11.363 3.1758 3.625 1.1797 7.1328 2.5 10.43 3.9141 3.2383 1.3867 6.418 2.9531 9.4531 4.6562 2.9297 1.6602 5.6367 3.4297 8.0781 5.2734h-20.453z"/>
<text x="0.0" y="117.5" font-size="5.0" font-weight="bold" font-family="Arbeit Regular, Helvetica, Arial-Unicode, Arial, Sans-serif" fill="#000000">Created by Lewen Design</text><text x="0.0" y="122.5" font-size="5.0" font-weight="bold" font-family="Arbeit Regular, Helvetica, Arial-Unicode, Arial, Sans-serif" fill="#000000">from Noun Project</text></svg>